<svg width="15" height="17" viewBox="0 0 15 17" fill="none" xmlns="http://www.w3.org/2000/svg">
<path d="M10.0934 1.66863L10.1806 2.66483L13.6673 2.35978C13.7994 2.34823 13.9306 2.38962 14.0322 2.47486C14.1338 2.5601 14.1974 2.6822 14.2089 2.8143C14.2205 2.94641 14.1791 3.07769 14.0939 3.17927C14.0086 3.28086 13.8865 3.34442 13.7544 3.35598L13.2185 3.40287L13.2978 14.0966C13.3014 14.5994 13.1155 15.0851 12.7771 15.457C12.4387 15.8289 11.9726 16.0597 11.4717 16.1034L5.26544 16.6464C4.76456 16.6903 4.2655 16.544 3.86767 16.2365C3.46984 15.929 3.20242 15.483 3.11866 14.9872L1.33983 4.44211L0.803875 4.489C0.671771 4.50056 0.540487 4.45917 0.438903 4.37393C0.337319 4.28869 0.273757 4.16659 0.2622 4.03448C0.250642 3.90238 0.292036 3.77109 0.377275 3.66951C0.462514 3.56793 0.584616 3.50436 0.716719 3.49281L4.2034 3.18776L4.11624 2.19157C4.08157 1.79526 4.20575 1.4014 4.46147 1.09665C4.71719 0.791901 5.08349 0.601215 5.4798 0.566542L8.46839 0.305075C8.8647 0.270402 9.25855 0.394583 9.5633 0.6503C9.86805 0.906017 10.0587 1.27232 10.0934 1.66863ZM5.11244 2.10441L5.1996 3.10061L9.18437 2.75198L9.09722 1.75579C9.08566 1.62369 9.0221 1.50158 8.92052 1.41634C8.81893 1.33111 8.68765 1.28971 8.55554 1.30127L5.56696 1.56274C5.43486 1.57429 5.31275 1.63786 5.22751 1.73944C5.14228 1.84102 5.10088 1.97231 5.11244 2.10441ZM3.92572 5.75072L5.16464 14.1748C5.17309 14.2408 5.19461 14.3044 5.22795 14.3619C5.26128 14.4194 5.30576 14.4698 5.35878 14.5099C5.4118 14.55 5.47229 14.5792 5.53671 14.5957C5.60114 14.6121 5.6682 14.6156 5.73398 14.6058C5.79976 14.5961 5.86293 14.5733 5.91979 14.5388C5.97666 14.5044 6.02607 14.4589 6.06515 14.4051C6.10423 14.3513 6.13218 14.2902 6.14737 14.2255C6.16256 14.1607 6.16468 14.0936 6.15361 14.028L4.91469 5.60396C4.90624 5.538 4.88472 5.47439 4.85139 5.41685C4.81805 5.35931 4.77357 5.309 4.72056 5.26886C4.66754 5.22872 4.60705 5.19956 4.54262 5.18309C4.4782 5.16661 4.41113 5.16315 4.34536 5.17291C4.27958 5.18267 4.21641 5.20546 4.15954 5.23993C4.10268 5.2744 4.05326 5.31987 4.01418 5.37368C3.97511 5.42749 3.94716 5.48855 3.93197 5.55329C3.91678 5.61803 3.91465 5.68515 3.92572 5.75072ZM10.3849 4.6556C10.2524 4.65951 10.1268 4.71588 10.0359 4.81231C9.94494 4.90873 9.896 5.03733 9.89983 5.16983L10.1426 13.6811C10.1496 13.8113 10.2073 13.9336 10.3033 14.0219C10.3993 14.1102 10.526 14.1575 10.6564 14.1537C10.7868 14.1499 10.9105 14.0953 11.0012 14.0015C11.0919 13.9078 11.1423 13.7823 11.1418 13.6519L10.8991 5.14063C10.8952 5.00813 10.8388 4.88261 10.7424 4.79166C10.6459 4.70071 10.5174 4.65177 10.3849 4.6556ZM7.3663 4.91868C7.23419 4.93024 7.11209 4.9938 7.02685 5.09539C6.94161 5.19697 6.90022 5.32826 6.91178 5.46036L7.6526 13.928C7.66416 14.0601 7.72772 14.1822 7.8293 14.2675C7.93089 14.3527 8.06217 14.3941 8.19428 14.3825C8.32638 14.371 8.44848 14.3074 8.53372 14.2058C8.61896 14.1042 8.66035 13.973 8.6488 13.8409L7.90797 5.3732C7.89641 5.2411 7.83285 5.119 7.73127 5.03376C7.62968 4.94852 7.4984 4.90713 7.3663 4.91868Z" fill="#FF6969"/>
</svg>
